<svg width="43" height="43" viewBox="0 0 43 43" fill="none" xmlns="http://www.w3.org/2000/svg">
<circle cx="21.5" cy="21.5" r="21.5" fill="#0271B9"/>
<path d="M17.0611 27V25.0057L21.7209 20.6911C22.1172 20.3075 22.4496 19.9624 22.718 19.6555C22.9908 19.3487 23.1974 19.0483 23.3381 18.7543C23.4787 18.456 23.549 18.1342 23.549 17.7891C23.549 17.4055 23.4616 17.0753 23.2869 16.7983C23.1122 16.517 22.8736 16.3018 22.571 16.1527C22.2685 15.9993 21.9254 15.9226 21.5419 15.9226C21.1413 15.9226 20.7919 16.0036 20.4936 16.1655C20.1953 16.3274 19.9652 16.5597 19.8033 16.8622C19.6413 17.1648 19.5604 17.5249 19.5604 17.9425H16.9332C16.9332 17.0859 17.1271 16.3423 17.5149 15.7116C17.9027 15.081 18.446 14.593 19.1449 14.2479C19.8438 13.9027 20.6491 13.7301 21.5611 13.7301C22.4986 13.7301 23.3146 13.8963 24.0092 14.2287C24.7081 14.5568 25.2514 15.0128 25.6392 15.5966C26.027 16.1804 26.2209 16.8494 26.2209 17.6037C26.2209 18.098 26.1229 18.5859 25.9268 19.0675C25.7351 19.549 25.392 20.0838 24.8977 20.6719C24.4034 21.2557 23.7067 21.9567 22.8075 22.7749L20.8963 24.6477V24.7372H26.3935V27H17.0611Z" fill="white"/>
</svg>
