<svg width="43" height="43" viewBox="0 0 43 43" fill="none" xmlns="http://www.w3.org/2000/svg">
<circle cx="21.5" cy="21.5" r="21.5" fill="#0271B9"/>
<path d="M21.8999 27.179C20.9453 27.179 20.0952 27.0149 19.3494 26.6868C18.608 26.3544 18.022 25.8984 17.5916 25.3189C17.1655 24.7351 16.946 24.0618 16.9332 23.299H19.7202C19.7372 23.6186 19.8416 23.8999 20.0334 24.1428C20.2294 24.3814 20.4893 24.5668 20.8132 24.6989C21.1371 24.831 21.5014 24.897 21.9062 24.897C22.3281 24.897 22.701 24.8224 23.0249 24.6733C23.3487 24.5241 23.6023 24.3175 23.7855 24.0533C23.9688 23.7891 24.0604 23.4844 24.0604 23.1392C24.0604 22.7898 23.9624 22.4808 23.7663 22.2124C23.5746 21.9396 23.2976 21.7266 22.9354 21.5732C22.5774 21.4197 22.1513 21.343 21.657 21.343H20.4361V19.3104H21.657C22.0746 19.3104 22.4432 19.2379 22.7628 19.093C23.0866 18.9482 23.3381 18.7479 23.517 18.4922C23.696 18.2322 23.7855 17.9297 23.7855 17.5845C23.7855 17.2564 23.7067 16.9688 23.549 16.7216C23.3956 16.4702 23.1783 16.2741 22.897 16.1335C22.62 15.9929 22.2962 15.9226 21.9254 15.9226C21.5504 15.9226 21.2074 15.9908 20.8963 16.1271C20.5852 16.2592 20.3359 16.4489 20.1484 16.696C19.9609 16.9432 19.8608 17.233 19.848 17.5653H17.1953C17.2081 16.8111 17.4233 16.1463 17.8409 15.571C18.2585 14.9957 18.821 14.5462 19.5284 14.2223C20.2401 13.8942 21.0433 13.7301 21.9382 13.7301C22.8416 13.7301 23.6321 13.8942 24.3097 14.2223C24.9872 14.5504 25.5135 14.9936 25.8885 15.5518C26.2678 16.1058 26.4553 16.728 26.451 17.4183C26.4553 18.1513 26.2273 18.7628 25.767 19.2528C25.3111 19.7429 24.7166 20.054 23.9837 20.1861V20.2884C24.9467 20.4119 25.6797 20.7464 26.1825 21.2919C26.6896 21.8331 26.9411 22.5107 26.9368 23.3246C26.9411 24.0703 26.7259 24.733 26.2912 25.3125C25.8608 25.892 25.2663 26.348 24.5078 26.6804C23.7493 27.0128 22.88 27.179 21.8999 27.179Z" fill="white"/>
</svg>
