<svg width="43" height="43" viewBox="0 0 43 43" fill="none" xmlns="http://www.w3.org/2000/svg">
<circle cx="21.5" cy="21.5" r="21.5" fill="#0271B9"/>
<path d="M20.8423 27.179C19.9389 27.179 19.1335 27.0128 18.4261 26.6804C17.723 26.348 17.1648 25.8899 16.7514 25.3061C16.3381 24.7223 16.1229 24.0533 16.1058 23.299H18.7905C18.8203 23.8061 19.0334 24.2173 19.4297 24.5327C19.826 24.848 20.2969 25.0057 20.8423 25.0057C21.277 25.0057 21.6605 24.9098 21.9929 24.718C22.3295 24.522 22.5916 24.2514 22.7791 23.9062C22.9709 23.5568 23.0668 23.1562 23.0668 22.7045C23.0668 22.2443 22.9688 21.8395 22.7727 21.4901C22.581 21.1406 22.3146 20.8679 21.9737 20.6719C21.6328 20.4759 21.2429 20.3757 20.804 20.3714C20.4205 20.3714 20.0476 20.4503 19.6854 20.608C19.3274 20.7656 19.0483 20.9808 18.848 21.2536L16.3871 20.8125L17.0071 13.9091H25.0099V16.1719H19.2891L18.9503 19.451H19.027C19.2571 19.1271 19.6044 18.8587 20.0689 18.6456C20.5334 18.4325 21.0533 18.326 21.6286 18.326C22.4169 18.326 23.12 18.5114 23.7379 18.8821C24.3558 19.2528 24.8438 19.7621 25.2017 20.4098C25.5597 21.0533 25.7365 21.7947 25.7322 22.6342C25.7365 23.5163 25.532 24.3004 25.1186 24.9865C24.7095 25.6683 24.1364 26.2053 23.3991 26.5973C22.6662 26.9851 21.8139 27.179 20.8423 27.179Z" fill="white"/>
</svg>
