<svg width="43" height="43" viewBox="0 0 43 43" fill="none" xmlns="http://www.w3.org/2000/svg">
<circle cx="21.5" cy="21.5" r="21.5" fill="#0271B9"/>
<path d="M21.0852 27.179C20.4119 27.1747 19.7621 27.0618 19.1357 26.8402C18.5135 26.6186 17.9553 26.2585 17.4609 25.7599C16.9666 25.2614 16.5746 24.6009 16.2848 23.7784C15.9993 22.956 15.8565 21.946 15.8565 20.7486C15.8608 19.6491 15.9865 18.6669 16.2337 17.8018C16.4851 16.9325 16.843 16.1953 17.3075 15.5902C17.7763 14.9851 18.3366 14.5249 18.9886 14.2095C19.6406 13.8899 20.3714 13.7301 21.1811 13.7301C22.0547 13.7301 22.826 13.9006 23.495 14.2415C24.1641 14.5781 24.701 15.0362 25.1058 15.6158C25.5149 16.1953 25.7621 16.8452 25.8473 17.5653H23.1179C23.0114 17.1094 22.7876 16.7514 22.4467 16.4915C22.1058 16.2315 21.6839 16.1016 21.1811 16.1016C20.3288 16.1016 19.6811 16.4723 19.2379 17.2138C18.799 17.9553 18.5753 18.9631 18.5668 20.2372H18.6562C18.8523 19.8494 19.1165 19.5192 19.4489 19.2464C19.7855 18.9695 20.1669 18.7585 20.593 18.6136C21.0234 18.4645 21.4773 18.3899 21.9545 18.3899C22.7301 18.3899 23.4205 18.5732 24.0256 18.9396C24.6307 19.3018 25.108 19.8004 25.4574 20.4354C25.8068 21.0703 25.9815 21.7969 25.9815 22.6151C25.9815 23.5014 25.7749 24.2898 25.3615 24.9801C24.9524 25.6705 24.3793 26.2116 23.642 26.6037C22.9091 26.9915 22.0568 27.1832 21.0852 27.179ZM21.0724 25.0057C21.4986 25.0057 21.88 24.9034 22.2166 24.6989C22.5533 24.4943 22.8175 24.2173 23.0092 23.8679C23.201 23.5185 23.2969 23.1264 23.2969 22.6918C23.2969 22.2571 23.201 21.8672 23.0092 21.522C22.8217 21.1768 22.5618 20.902 22.2294 20.6974C21.897 20.4929 21.5178 20.3906 21.0916 20.3906C20.772 20.3906 20.4759 20.4503 20.2031 20.5696C19.9347 20.6889 19.6982 20.8551 19.4936 21.0682C19.2933 21.2812 19.1357 21.5284 19.0206 21.8097C18.9055 22.0866 18.848 22.3828 18.848 22.6982C18.848 23.12 18.9439 23.5057 19.1357 23.8551C19.3317 24.2045 19.5959 24.4837 19.9283 24.6925C20.2649 24.9013 20.6463 25.0057 21.0724 25.0057Z" fill="white"/>
</svg>
