<svg width="43" height="43" viewBox="0 0 43 43" fill="none" xmlns="http://www.w3.org/2000/svg">
<circle cx="21.5" cy="21.5" r="21.5" fill="#0271B9"/>
<path d="M20.9446 27.179C19.9602 27.179 19.0845 27.0192 18.3175 26.6996C17.5547 26.3757 16.956 25.9347 16.5213 25.3764C16.0866 24.8182 15.8693 24.1854 15.8693 23.478C15.8693 22.9325 15.9929 22.4318 16.2401 21.9759C16.4915 21.5156 16.8324 21.1342 17.2628 20.8317C17.6932 20.5249 18.1747 20.3288 18.7074 20.2436V20.1541C18.0085 20.0135 17.4418 19.6747 17.0071 19.1378C16.5724 18.5966 16.3551 17.968 16.3551 17.2521C16.3551 16.5746 16.5533 15.9716 16.9496 15.4432C17.3459 14.9105 17.8892 14.4929 18.5795 14.1903C19.2741 13.8835 20.0625 13.7301 20.9446 13.7301C21.8267 13.7301 22.6129 13.8835 23.3033 14.1903C23.9979 14.4972 24.5433 14.9169 24.9396 15.4496C25.3359 15.978 25.5362 16.5788 25.5405 17.2521C25.5362 17.9723 25.3146 18.6009 24.8757 19.1378C24.4368 19.6747 23.8743 20.0135 23.1882 20.1541V20.2436C23.7124 20.3288 24.1875 20.5249 24.6136 20.8317C25.044 21.1342 25.3849 21.5156 25.6364 21.9759C25.892 22.4318 26.022 22.9325 26.0263 23.478C26.022 24.1854 25.8026 24.8182 25.3679 25.3764C24.9332 25.9347 24.3324 26.3757 23.5653 26.6996C22.8026 27.0192 21.929 27.179 20.9446 27.179ZM20.9446 25.1463C21.3835 25.1463 21.767 25.0675 22.0952 24.9098C22.4233 24.7479 22.679 24.5263 22.8622 24.245C23.0497 23.9595 23.1435 23.6314 23.1435 23.2607C23.1435 22.8814 23.0476 22.5469 22.8558 22.2571C22.6641 21.9631 22.4041 21.733 22.076 21.5668C21.7479 21.3963 21.3707 21.3111 20.9446 21.3111C20.5227 21.3111 20.1456 21.3963 19.8132 21.5668C19.4808 21.733 19.2188 21.9631 19.027 22.2571C18.8395 22.5469 18.7457 22.8814 18.7457 23.2607C18.7457 23.6314 18.8374 23.9595 19.0206 24.245C19.2038 24.5263 19.4616 24.7479 19.794 24.9098C20.1264 25.0675 20.5099 25.1463 20.9446 25.1463ZM20.9446 19.2976C21.3111 19.2976 21.6371 19.223 21.9226 19.0739C22.2081 18.9247 22.4318 18.718 22.5938 18.4538C22.7557 18.1896 22.8366 17.8849 22.8366 17.5398C22.8366 17.1989 22.7557 16.9006 22.5938 16.6449C22.4318 16.3849 22.2102 16.1825 21.929 16.0376C21.6477 15.8885 21.3196 15.8139 20.9446 15.8139C20.5739 15.8139 20.2457 15.8885 19.9602 16.0376C19.6747 16.1825 19.451 16.3849 19.2891 16.6449C19.1314 16.9006 19.0526 17.1989 19.0526 17.5398C19.0526 17.8849 19.1335 18.1896 19.2955 18.4538C19.4574 18.718 19.6811 18.9247 19.9666 19.0739C20.2521 19.223 20.5781 19.2976 20.9446 19.2976Z" fill="white"/>
</svg>
