<svg width="120" height="24" viewBox="0 0 120 24" fill="none" xmlns="http://www.w3.org/2000/svg">
<g id="logo 1" clip-path="url(#clip0_2367_2986)">
<path id="Vector" d="M22.1424 1.68349C22.1424 0.754029 21.2921 0.000976562 20.2442 0.000976562H19.7826C18.7818 0.000976562 17.9305 0.683846 17.8594 1.55545V21.5123C17.8594 22.4408 18.7181 23.1389 19.7687 23.1389H20.2322C22.2264 23.1389 22.1433 21.5208 22.1433 21.5123L22.1424 1.68349Z" fill="#140900"/>
<path id="Vector_2" d="M15.2173 11.659C15.2173 7.59312 12.7762 5.56348 7.89581 5.56348C5.15743 5.56348 3.20474 6.39715 2.88437 6.59157C1.76353 7.2678 2.3655 8.4761 2.50583 8.72459C2.69325 9.05654 3.34323 10.1131 4.2831 9.80485C5.03371 9.55352 6.96517 9.20829 7.72963 9.20829C8.87262 9.20829 9.69247 9.42264 10.1874 9.85417C10.6813 10.2838 10.9297 10.9724 10.9297 11.9246V12.7848H6.87284C4.93585 12.7848 3.45125 13.2704 2.41904 14.2416C1.47271 15.1227 1 16.3063 1 17.7859C1 19.3736 1.49025 20.6682 2.4689 21.6744C3.44571 22.6798 4.85829 23.136 6.77036 23.136H10.6075C14.1574 23.136 15.2145 21.2135 15.2145 19.5044V11.66L15.2173 11.659ZM10.9315 16.6573C10.9315 17.7185 10.7321 18.4346 10.3379 18.8092C9.94175 19.1858 9.55675 19.4229 9.18283 19.5225C8.80891 19.623 8.28081 19.6695 7.59945 19.6695C5.95143 19.6695 5.12604 19.0103 5.12604 17.6863C5.12604 16.3623 5.92835 15.7316 7.53389 15.7316H10.9315V16.6573Z" fill="#140900"/>
<path id="Vector_3" d="M55.0366 11.659C55.0366 7.59312 52.5955 5.56348 47.7152 5.56348C44.9758 5.56348 43.0241 6.39715 42.7037 6.59157C41.5819 7.2678 42.1848 8.4761 42.3252 8.72459C42.5126 9.05654 43.1635 10.1131 44.1024 9.80485C44.853 9.55352 46.7845 9.20829 47.5499 9.20829C48.6929 9.20829 49.5127 9.42264 50.0076 9.85417C50.5015 10.2838 50.7499 10.9724 50.7499 11.9246V12.7848H46.694C44.757 12.7848 43.2724 13.2704 42.2402 14.2416C41.2939 15.1227 40.8203 16.3063 40.8203 17.7859C40.8203 19.3736 41.3114 20.6682 42.2892 21.6744C43.266 22.6798 44.7441 23.136 46.6571 23.136H50.4286C53.9785 23.136 55.0357 21.2135 55.0357 19.5044V11.66L55.0366 11.659ZM50.7508 16.6573C50.7508 17.7185 50.5514 18.4346 50.1572 18.8092C49.7611 19.1858 49.3761 19.4229 49.0022 19.5225C48.6283 19.623 48.1001 19.6695 47.4188 19.6695C45.7708 19.6695 44.9454 19.0103 44.9454 17.6863C44.9454 16.3623 45.7477 15.7316 47.3532 15.7316H50.7508V16.6573Z" fill="#140900"/>
<path id="Vector_4" d="M38.7178 9.45868C38.4205 8.44292 37.9866 7.65477 37.4142 7.09235C36.3801 6.07469 34.9851 5.56538 33.2263 5.56538C32.3252 5.56538 31.5442 5.69816 30.8841 5.96372C30.2249 6.22739 29.4889 6.57736 29.0688 6.95199V1.68156C29.0688 0.753053 28.2131 0 27.1578 0H26.6933C25.6389 0 24.7812 0.753053 24.7812 1.68156V17.9016C24.7812 21.1234 26.9879 23.1369 29.9774 23.1369C30.6422 23.1369 32.2966 23.135 33.243 23.135C35.0018 23.135 36.3784 22.7025 37.4132 21.6858C38.1833 20.9309 38.6892 19.8364 38.9311 18.409C39.0843 17.5222 39.1628 16.2362 39.1628 14.5499C39.1628 12.4083 39.0142 10.4782 38.7178 9.45868ZM34.3951 18.1937C33.9556 19.1801 33.1525 19.6714 31.9864 19.6714C30.8204 19.6714 29.9662 19.1801 29.548 18.1937C29.2378 17.4833 29.0679 16.0749 29.0679 14.3327C29.0679 12.5904 29.235 11.3868 29.5637 10.6528C29.981 9.6901 30.7843 9.2083 31.9706 9.2083C33.1571 9.2083 33.9733 9.70148 34.4137 10.6869C34.7202 11.3973 34.8753 12.6132 34.8753 14.3327C34.8753 16.0522 34.7247 17.4359 34.3951 18.1937Z" fill="#140900"/>
<path id="Vector_5" d="M110.072 9.20909C112.369 9.20909 112.711 11.5318 112.711 12.7136L112.714 21.4733C112.783 22.3572 113.602 23.1302 114.577 23.1302H115.146C116.179 23.1302 116.999 22.415 116.999 21.4733V12.1293C116.999 11.1344 116.87 10.2429 116.613 9.45189C116.356 8.66279 115.46 7.28188 113.584 6.29836C112.646 5.80707 111.349 5.56143 110.054 5.55859C108.759 5.56143 107.463 5.80613 106.524 6.29836C104.648 7.28188 103.751 8.66279 103.495 9.45189C103.24 10.2429 103.109 11.1344 103.109 12.1293V21.4733C103.109 22.416 103.928 23.1302 104.962 23.1302H105.531C106.506 23.1302 107.325 22.3572 107.394 21.4733L107.397 12.7136C107.397 11.5318 107.739 9.20909 110.037 9.20909H110.072Z" fill="#140900"/>
<path id="Vector_6" d="M69.7975 23.1364C70.8121 23.1364 71.6209 22.4184 71.6209 21.4709C71.6209 21.4662 71.6237 12.3452 71.6237 12.3452C71.6237 11.7296 71.6024 10.5744 72.4657 9.86597C72.9153 9.49609 73.5717 9.20776 74.386 9.20776C75.2004 9.20776 75.8503 9.51885 76.2455 9.89917C77.0496 10.674 76.9961 11.7296 76.9961 12.3452V21.4709C76.9961 22.4184 77.8298 23.1364 78.8546 23.1364H79.4261C80.426 23.1364 81.28 22.4222 81.28 21.4747V12.1981C81.28 11.207 81.1111 10.2605 80.8221 9.45626C80.5322 8.65199 79.5424 7.05484 77.731 6.24583C75.9427 5.4463 72.9153 5.26988 71.1039 6.15951C70.3726 6.51802 69.4798 7.21416 69.4798 7.21416C69.4798 7.21416 68.5871 6.51897 67.8558 6.15951C66.0435 5.26988 63.0161 5.44725 61.2287 6.24583C59.4182 7.05484 58.4275 8.65199 58.1376 9.45626C57.8486 10.2605 57.6797 11.2061 57.6797 12.1981V21.4747C57.6797 22.4222 58.5337 23.1364 59.5336 23.1364H60.1051C61.1299 23.1364 61.9636 22.4184 61.9636 21.4709C61.9636 21.4662 61.9636 12.3452 61.9636 12.3452C61.9636 11.7296 61.9101 10.674 62.7142 9.89917C63.1094 9.5179 63.7593 9.20776 64.5737 9.20776C65.388 9.20776 66.0444 9.49609 66.494 9.86597C67.3564 10.5744 67.336 11.7296 67.336 12.3452C67.336 12.3452 67.3388 21.4662 67.3388 21.4709C67.3388 22.4184 68.1467 23.1364 69.1623 23.1364H69.8002H69.7975Z" fill="#140900"/>
<path id="Vector_7" d="M84.1138 9.67285C84.1138 9.67285 82.9219 12.4072 82.9219 14.7631C82.9219 16.7121 83.3179 19.3583 85.4063 21.5045C86.1533 22.2718 87.1051 22.8646 88.2278 23.3179C89.3505 23.7741 90.6717 23.9999 92.1886 23.9999C93.7055 23.9999 95.0267 23.7741 96.1494 23.3179C97.2711 22.8646 98.2239 22.2718 98.9708 21.5045C101.059 19.3583 101.455 16.7121 101.455 14.7631C101.455 12.4072 100.263 9.67285 100.263 9.67285V3.95666C100.263 3.80017 100.178 3.59626 99.9883 3.5147C99.8627 3.46064 99.6891 3.47486 99.5525 3.61144L96.7476 6.49845C96.6073 6.43017 96.4642 6.36473 96.3183 6.30308C95.1855 5.84119 93.9068 5.59555 92.4776 5.5671H91.8978C90.4695 5.5965 89.1908 5.84214 88.057 6.30308C87.9111 6.36473 87.768 6.43017 87.6277 6.49845L84.8228 3.61144C84.6853 3.47486 84.5117 3.46064 84.3871 3.5147C84.1969 3.59626 84.1119 3.80017 84.1119 3.95666V9.67285H84.1138ZM96.803 15.74C96.803 18.3387 94.83 20.3503 92.3455 20.3503C89.8611 20.3503 87.5751 18.3387 87.5751 15.74V13.8185C87.5751 11.2198 89.8611 9.20717 92.3455 9.20717C94.83 9.20717 96.803 11.2188 96.803 13.8185V15.74Z" fill="#FF7300"/>
</g>
<defs>
<clipPath id="clip0_2367_2986">
<rect width="120" height="24" fill="white"/>
</clipPath>
</defs>
</svg>
