<svg width="119" height="119" viewBox="0 0 119 119" fill="none" xmlns="http://www.w3.org/2000/svg">
<g id="Group 1000001920">
<circle id="Ellipse 84" cx="59.5" cy="59.5" r="59.5" fill="black" fill-opacity="0.3"/>
<path id="Vector" d="M70.4804 58.285L51.8112 40.4635C51.4997 40.166 51.0858 40 50.6555 40C50.2251 40 49.8112 40.166 49.4997 40.4635L49.4796 40.4836C49.3281 40.6278 49.2074 40.8014 49.125 40.9939C49.0425 41.1863 49 41.3935 49 41.6029C49 41.8123 49.0425 42.0195 49.125 42.212C49.2074 42.4044 49.3281 42.578 49.4796 42.7222L67.0601 59.5034L49.4796 76.2778C49.3281 76.422 49.2074 76.5956 49.125 76.788C49.0425 76.9805 49 77.1877 49 77.3971C49 77.6065 49.0425 77.8137 49.125 78.0061C49.2074 78.1985 49.3281 78.3721 49.4796 78.5164L49.4997 78.5365C49.8112 78.834 50.2251 79 50.6555 79C51.0858 79 51.4997 78.834 51.8112 78.5365L70.4804 60.715C70.6446 60.5582 70.7753 60.3697 70.8646 60.1609C70.9539 59.952 71 59.7272 71 59.5C71 59.2728 70.9539 59.048 70.8646 58.8391C70.7753 58.6303 70.6446 58.4418 70.4804 58.285Z" fill="white" fill-opacity="0.5"/>
</g>
</svg>
